<svg xmlns="http://www.w3.org/2000/svg" fill="none" viewBox="0 0 24 24"><title>kofi</title><mask id="c" maskUnits="userSpaceOnUse"><path fill="#fff" d="M23.999 2.37h-24v19.258h24Z" style="stroke-width:.0998" transform="translate(0 -22.796)scale(10.02004)"/></mask><mask id="b" maskUnits="userSpaceOnUse"><path fill="#fff" d="M23.999 2.37h-24v19.258h24Z" style="stroke-width:.0998" transform="translate(0 -22.796)scale(10.02004)"/></mask><mask id="a" maskUnits="userSpaceOnUse"><path fill="#fff" d="M23.999 2.37h-24v19.258h24Z" style="stroke-width:.0998" transform="translate(0 -22.796)scale(10.02004)"/></mask><path d="M114.546 16.15c-23.639 0-43.645.243-59.788 2.29-21.369 2.73-39.552 19.097-39.552 49.336h-.02c0 30.69 1.597 53.644 13.876 74.329C42.93 165.749 66.12 178.7 96.13 178.7h7.26c36.828 0 56.85-19.553 66.853-35.011 4.32-6.824 7.504-13.627 9.55-20.451C205.94 120.97 225.255 99.376 225.255 73v-3.64c0-28.42-18.63-48.211-50.687-51.391-13.64-1.362-23.195-1.82-60.023-1.82m0 17.065c36.834 0 44.56.452 57.517 1.585 22.966 2.725 36.146 13.87 36.146 35.011v3.406c0 18.873-15.687 33.641-33.876 33.641h-8.18l-1.37 5.695c-1.818 8.87-5.216 15.904-9.081 22.271-7.957 12.5-22.288 26.831-51.842 26.831h-7.045c-22.51 0-42.283-7.73-53.193-27.966-9.548-17.505-11.37-36.37-11.37-65.698h-.02c0-19.095 7.514-29.776 26.381-32.506 13.413-2.047 31.154-2.27 55.933-2.27" mask="url(#a)" style="fill:#202020;fill-opacity:1" transform="translate(0 2.275)scale(.0998)"/><path fill="#202020" d="M166.158 83.68c0 2.73 2.046 4.777 5.683 4.777 11.594 0 17.961-6.595 17.961-17.505s-6.367-17.732-17.961-17.732c-3.637 0-5.683 2.046-5.683 4.776v25.69z" mask="url(#b)" transform="translate(0 2.275)scale(.0998)"/><path fill="#ff5a16" d="M54.532 82.32c0 13.412 7.501 25.006 17.049 34.104 6.367 6.138 16.37 12.506 23.188 16.598 2.046 1.135 4.092 1.819 6.367 1.819 2.73 0 4.998-.684 6.823-1.819 6.823-4.092 16.82-10.46 22.96-16.598 9.775-9.092 17.276-20.686 17.276-34.104 0-14.553-10.909-27.509-26.596-27.509-9.319 0-15.687 4.777-20.463 11.366-4.321-6.595-10.91-11.366-20.236-11.366-15.915 0-26.374 12.956-26.374 27.509" mask="url(#c)" style="fill:#202020;fill-opacity:1" transform="translate(0 2.275)scale(.0998)"/></svg>