<svg xmlns="http://www.w3.org/2000/svg" xml:space="preserve" viewBox="0 0 600 600"><g style="display:inline"><path d="M241.478 134.224c.482-4.022 4.125-7.284 8.142-7.284H365.54c4.014 0 6.88 3.262 6.397 7.284l-13.415 112.134c-.48 4.024-4.125 7.286-8.142 7.286H234.46c-4.014 0-6.88-3.262-6.398-7.286z" style="display:inline;fill:#fedb00;fill-opacity:1;fill-rule:nonzero;stroke:none;stroke-width:1.5598" transform="translate(0 109.708)"/><path d="M385.458 134.224c.483-4.022 4.126-7.284 8.142-7.284h115.92c4.016 0 6.88 3.262 6.4 7.284l-13.416 112.134c-.482 4.024-4.126 7.286-8.14 7.286H378.442c-4.016 0-6.88-3.262-6.398-7.286z" style="display:inline;fill:#f9423a;fill-opacity:1;fill-rule:nonzero;stroke:none;stroke-width:1.5598" transform="translate(0 109.708)"/><path d="M97.496 134.224c.482-4.022 4.126-7.284 8.14-7.284h115.922c4.016 0 6.88 3.262 6.398 7.284l-13.414 112.134c-.482 4.024-4.128 7.286-8.142 7.286H90.48c-4.017 0-6.88-3.262-6.4-7.286z" style="display:inline;fill:#41b6e6;fill-opacity:1;fill-rule:nonzero;stroke:none;stroke-width:1.5598" transform="translate(0 109.708)"/><path d="m188.566 159.128-.01.01a11.15 11.15 0 0 1 2.892 7.49c0 3.105-1.244 5.943-3.283 7.972-.212.259-1.14 1.101-2.785 2.528-1.855 1.609-4.426 3.215-7.71 4.821-3.285 1.612-7.086 2.477-11.408 2.599-3.384-.103-7.235-.82-11.557-2.155a640.595 640.595 0 0 1-12.524-4.01c-4.028-1.334-7.289-2.054-9.788-2.161a34.85 34.85 0 0 0-10.032 2.153 11.29 11.29 0 0 1-4.663 1.005 11.253 11.253 0 0 1-7.91-3.24l23.595 23.596a65.283 65.283 0 0 1 2.337-1.105c3.6-1.607 7.724-2.472 12.371-2.594 3.282.1 6.933.819 10.952 2.155l11.964 4.007c3.955 1.337 7.48 2.055 10.573 2.16 2.563-.092 5.323-.729 8.284-1.912 1.64-.664 3.073-.936 4.562-.936 6.19 0 11.206 5.017 11.206 11.203 0 3.106-1.243 5.945-3.282 7.973-.211.26-1.14 1.1-2.785 2.527-1.855 1.606-4.425 3.214-7.71 4.82-3.285 1.61-7.087 2.477-11.409 2.6-3.383-.104-7.234-.82-11.556-2.156a644.234 644.234 0 0 1-12.524-4.007c-4.027-1.336-7.291-2.056-9.791-2.162-3.477.228-6.82.945-10.03 2.153-1.42.644-3 1.001-4.663 1.001a11.251 11.251 0 0 1-7.91-3.237l31.417 31.417h51.01c4.014 0 7.66-3.26 8.142-7.284l6.544-54.711zM109.49 175.83l-.007.007.162.162c-.054-.054-.103-.113-.156-.169zm14.182 46.083-.007.007.164.165c-.054-.056-.104-.115-.157-.171z" style="display:inline;fill:#0077c8;fill-opacity:1;stroke:none;stroke-width:.0783623;stroke-miterlimit:2;stroke-dasharray:none;stroke-opacity:1" transform="translate(0 109.708)"/><path d="m445.33 153.842-.01.009c2.021 2.14 3.252 5 3.252 8.155 0 6.617-5.367 11.982-11.985 11.982l-.413-.007-28.003-.542c-3.234 0-6.117-1.242-8.225-3.25l36.482 36.482 6.299-.074c6.867 0 12.232 5.363 12.232 11.98 0 6.619-5.366 11.982-11.985 11.982l-.414-.007-28.078-.542c-3.307 0-6.253-1.291-8.371-3.38l27.012 27.013h61.242c4.014 0 7.658-3.261 8.14-7.285l5.95-49.73-13.68-13.68-.008.007a11.823 11.823 0 0 1 2.57 7.374c0 6.618-5.366 11.98-11.983 11.98l-.414-.004-27.984-.542c-6.616 0-11.784-5.167-11.784-11.541 0-6.233 4.95-11.316 11.127-11.541h.416l13.299-.155zm-39.22 72.789c-.034-.034-.064-.073-.098-.108l-.005.004zm-6.713-57.008-.009.01.228.226c-.075-.077-.146-.157-.219-.236z" style="display:inline;fill:#af272f;fill-opacity:1;stroke:none;stroke-width:.0783623;stroke-miterlimit:2;stroke-dasharray:none;stroke-opacity:1" transform="translate(0 109.708)"/><path d="m333.326 162.114-.007.007c6.448 7.267 9.752 17.206 8.391 28.173-2.765 22.264-23.679 40.312-46.713 40.312-10.723 0-20.013-3.914-26.605-10.341l33.379 33.378h48.61c4.017 0 7.661-3.26 8.141-7.284l6.31-52.738zm-31.296 11.835c-9.342 0-17.823 7.317-18.943 16.345-1.12 9.023 5.543 16.34 14.884 16.34 9.344 0 17.82-7.317 18.94-16.34 1.122-9.028-5.54-16.345-14.881-16.345zm-34.427 45.508-.01.009.437.436c-.145-.146-.285-.297-.427-.445z" style="display:inline;fill:#cc8a00;fill-opacity:1;stroke:none;stroke-width:.0783623;stroke-miterlimit:2;stroke-dasharray:none;stroke-opacity:1" transform="translate(0 109.708)"/><path d="M294.997 230.605c-23.034 0-39.471-18.048-36.708-40.312 2.764-22.268 23.68-40.314 46.715-40.314 23.032 0 39.469 18.046 36.707 40.314-2.765 22.264-23.68 40.312-46.714 40.312m2.974-23.97c9.344 0 17.82-7.319 18.942-16.342 1.12-9.028-5.543-16.344-14.884-16.344-9.342 0-17.822 7.316-18.941 16.344-1.121 9.023 5.541 16.341 14.883 16.341M402.699 218.47c0-6.23 4.95-11.316 11.126-11.543h.416l28.486-.33c6.867 0 12.232 5.363 12.232 11.98 0 6.619-5.365 11.982-11.984 11.982l-.414-.006-28.08-.542c-6.614 0-11.782-5.166-11.782-11.54m42.473-28.25c0-6.232 4.95-11.316 11.127-11.541h.417l28.388-.33c6.867-.003 12.232 5.36 12.232 11.98 0 6.617-5.365 11.98-11.982 11.98l-.414-.006-27.984-.542c-6.616 0-11.784-5.166-11.784-11.54m-48.785-28.324c0-6.231 4.95-11.317 11.127-11.543h.417l28.408-.33c6.866-.001 12.232 5.363 12.232 11.98 0 6.618-5.366 11.983-11.983 11.983l-.414-.006-28.003-.544c-6.615 0-11.784-5.167-11.784-11.54M120.59 214.175c0-3.427 1.539-6.51 3.95-8.581l.637-.506 2.044-1.632c2.065-1.608 4.898-3.215 8.5-4.825 3.6-1.606 7.723-2.473 12.37-2.595 3.281.1 6.934.82 10.953 2.157l11.963 4.006c3.955 1.337 7.48 2.055 10.574 2.16 2.562-.092 5.323-.73 8.283-1.913 1.64-.664 3.072-.935 4.561-.935 6.19 0 11.206 5.016 11.206 11.203 0 3.105-1.242 5.944-3.282 7.972-.21.26-1.14 1.101-2.785 2.528-1.855 1.607-4.424 3.215-7.709 4.822-3.285 1.61-7.087 2.476-11.41 2.598-3.383-.103-7.233-.82-11.555-2.156a644.31 644.31 0 0 1-12.524-4.007c-4.027-1.336-7.29-2.056-9.79-2.162a34.75 34.75 0 0 0-10.03 2.153 11.284 11.284 0 0 1-4.665 1.002c-6.236 0-11.292-5.053-11.292-11.289m-14.184-46.086c0-3.428 1.538-6.508 3.95-8.579l.636-.509 2.044-1.631c2.066-1.607 4.9-3.214 8.5-4.824 3.603-1.608 7.725-2.475 12.37-2.596 3.284.103 6.934.821 10.953 2.156l11.964 4.007c3.956 1.336 7.48 2.056 10.575 2.16 2.56-.088 5.321-.727 8.283-1.912 1.637-.662 3.07-.937 4.563-.937 6.186 0 11.205 5.017 11.205 11.205 0 3.104-1.243 5.942-3.282 7.97-.213.26-1.14 1.101-2.786 2.529-1.855 1.608-4.425 3.215-7.709 4.821-3.285 1.612-7.087 2.477-11.409 2.598-3.384-.103-7.236-.82-11.558-2.154a640.394 640.394 0 0 1-12.522-4.008c-4.028-1.335-7.29-2.055-9.79-2.163-3.479.23-6.822.946-10.03 2.153a11.29 11.29 0 0 1-4.665 1.004c-6.236 0-11.292-5.053-11.292-11.29" style="display:inline;fill:#fff;fill-opacity:1;fill-rule:nonzero;stroke:none;stroke-width:1.56141" transform="translate(0 109.708)"/></g></svg>
